<svg width="16" height="16" viewBox="0 0 16 16" fill="none" xmlns="http://www.w3.org/2000/svg">
<path d="M6.04167 0.495483C2.71235 0.495483 0 3.20783 0 6.53715C0 9.86647 2.71235 12.5788 6.04167 12.5788C7.48182 12.5788 8.80571 12.0701 9.84538 11.2246L13.9331 15.3124C13.9907 15.3724 14.0597 15.4202 14.136 15.4532C14.2123 15.4862 14.2945 15.5037 14.3776 15.5045C14.4608 15.5053 14.5433 15.4896 14.6202 15.4582C14.6972 15.4267 14.7672 15.3803 14.826 15.3215C14.8848 15.2627 14.9312 15.1927 14.9627 15.1157C14.9941 15.0387 15.0099 14.9563 15.009 14.8731C15.0082 14.79 14.9907 14.7078 14.9578 14.6315C14.9248 14.5552 14.8769 14.4862 14.8169 14.4286L10.7292 10.3409C11.5746 9.3012 12.0833 7.9773 12.0833 6.53715C12.0833 3.20783 9.37099 0.495483 6.04167 0.495483ZM6.04167 1.74548C8.69544 1.74548 10.8333 3.88338 10.8333 6.53715C10.8333 7.82991 10.3234 8.99787 9.49626 9.85828C9.44527 9.89575 9.40027 9.94075 9.36279 9.99174C8.50238 10.8189 7.33442 11.3288 6.04167 11.3288C3.3879 11.3288 1.25 9.19092 1.25 6.53715C1.25 3.88338 3.3879 1.74548 6.04167 1.74548Z" fill="#888888"/>
</svg>
